<?xml version="1.0" encoding="UTF-8" standalone="no"?>
<!-- Created with Inkscape (http://www.inkscape.org/) -->

<svg
   width="93.244507mm"
   height="28.877621mm"
   viewBox="0 0 93.244507 28.877621"
   version="1.1"
   id="svg5949"
   inkscape:version="1.2.1 (9c6d41e410, 2022-07-14)"
   sodipodi:docname="qualityaspects.svg"
   xmlns:inkscape="http://www.inkscape.org/namespaces/inkscape"
   xmlns:sodipodi="http://sodipodi.sourceforge.net/DTD/sodipodi-0.dtd"
   xmlns="http://www.w3.org/2000/svg"
   xmlns:svg="http://www.w3.org/2000/svg">
  <sodipodi:namedview
     id="namedview5951"
     pagecolor="#ffffff"
     bordercolor="#666666"
     borderopacity="1.0"
     inkscape:showpageshadow="2"
     inkscape:pageopacity="0.0"
     inkscape:pagecheckerboard="0"
     inkscape:deskcolor="#d1d1d1"
     inkscape:document-units="mm"
     showgrid="false"
     inkscape:zoom="2.1089995"
     inkscape:cx="170.45997"
     inkscape:cy="139.16551"
     inkscape:window-width="3840"
     inkscape:window-height="2081"
     inkscape:window-x="-9"
     inkscape:window-y="-9"
     inkscape:window-maximized="1"
     inkscape:current-layer="layer1" />
  <defs
     id="defs5946" />
  <g
     inkscape:label="Ebene 1"
     inkscape:groupmode="layer"
     id="layer1"
     transform="translate(-31.580645,-38.159852)">
    <path
       style="fill:none;stroke:#1773cf;stroke-width:0.264583px;stroke-linecap:butt;stroke-linejoin:miter;stroke-opacity:1"
       d="m 78.064515,48.258063 c 0,-0.05914 0,-0.118279 0,-0.177419 0,-0.05914 -0.02646,-0.124529 0,-0.177419 0.0374,-0.07481 0.140019,-0.102609 0.177419,-0.177419 0.05731,-0.114628 -0.05731,-0.77247 0,-0.887098 0.270528,-0.541057 0.140653,0.32449 0.354838,-0.532257 0.270762,-1.083067 -0.465521,0.613103 0.177422,-0.887098 0.104182,-0.243096 0.271198,-0.458769 0.354838,-0.709676 0.09536,-0.28608 0.04256,-0.617378 0.177419,-0.887097 0.11221,-0.22442 0.393078,-0.32349 0.532257,-0.532257 0.104603,-0.156906 0.32754,-1.141841 0.35484,-1.241936 0.635249,-2.329254 0.132025,-0.261276 0.532257,-2.129033 0.114245,-0.533138 0.236559,-1.064517 0.354838,-1.596774 -0.406156,0.06769 -1.032728,0.06487 -1.419353,0.354839 -0.133818,0.100364 -0.22102,0.254476 -0.354838,0.354839 -0.25199,0.188992 -0.731431,0.220925 -0.887097,0.532258 -0.02645,0.0529 0.02645,0.124523 0,0.17742 -0.0374,0.07481 -0.140016,0.102612 -0.177419,0.177419 -0.11828,0.236559 0.177419,0.177419 -0.17742,0.177419"
       id="path8510" />
    <path
       style="fill:none;stroke:#1773cf;stroke-width:0.264583px;stroke-linecap:butt;stroke-linejoin:miter;stroke-opacity:1"
       d="m 81.080643,38.32258 c 0.143246,0.857846 0.436735,1.665042 0.709679,2.483872 0.05914,0.177419 0.132061,0.350824 0.177419,0.532257 0.02869,0.114749 0,0.236558 0,0.35484"
       id="path8512" />
    <path
       style="fill:none;stroke:#1773cf;stroke-width:0.264583px;stroke-linecap:butt;stroke-linejoin:miter;stroke-opacity:1"
       d="m 64.403226,64.048385 c -3.479581,0 2.169292,-0.08119 -4.790324,0.709679 -2.167932,0.246356 -7.202402,0.177419 -9.225806,0.177419 -1.537634,0 -3.075268,0 -4.612902,0 -0.53226,0 -1.064517,0 -1.596776,0 -0.413978,0 -0.828763,0.02582 -1.241936,0 -0.53449,-0.03341 -1.074954,-0.057 -1.596773,-0.177419 -2.899731,-0.669168 2.092367,-0.10264 -1.774193,-0.532257 -0.352669,-0.03919 -0.709679,0 -1.064517,0 -0.295698,0 -0.591396,0 -0.887097,0 -0.05914,0 -0.119428,-0.01159 -0.177419,0 -0.239104,0.04782 -0.469154,0.137332 -0.709676,0.177419 -0.116671,0.01945 -0.236559,0 -0.354838,0 -0.177422,0 -0.354841,0 -0.53226,0 -0.354838,0 -0.709676,0 -1.064517,0 -1.064516,0 -2.12903,0 -3.193547,0"
       id="path8522" />
    <path
       style="fill:none;stroke:#1773cf;stroke-width:0.264583px;stroke-linecap:butt;stroke-linejoin:miter;stroke-opacity:1"
       d="m 34.419354,61.741936 c -0.05914,0.05914 -0.140019,0.102609 -0.177419,0.177419 -0.02646,0.05289 0.04182,0.135599 0,0.177419 -0.04182,0.04182 -0.124519,-0.02646 -0.177419,0 -0.149614,0.0748 -0.196151,0.301938 -0.35484,0.354838 -8.02e-4,2.64e-4 -0.532088,-1.7e-4 -0.532257,0 C 33.08391,62.545121 33.09351,62.71294 33,62.80645 c -0.09351,0.09351 -0.261328,0.08391 -0.354838,0.177421 -0.04182,0.04182 0.02646,0.124519 0,0.177419 -0.225806,0.45161 -1.084765,0.21708 -0.887098,1.064517 0.17742,0.413978 0.354839,0.827957 0.532259,1.241935 0.05914,0.05914 0.140016,0.102613 0.177419,0.177419 0.03517,0.07035 -0.03627,0.495987 0,0.532258 0.04182,0.04182 0.124523,-0.02645 0.177419,0 0.07481,0.0374 0.102613,0.140016 0.17742,0.17742 0.111928,0.05596 0.775168,-0.05596 0.887096,0 0.07481,0.0374 0.102613,0.140016 0.17742,0.177419 0.0529,0.02645 0.135601,-0.04182 0.177419,0 0.08364,0.08364 -0.08364,0.271203 0,0.354839 0.04182,0.04182 0.11828,0 0.17742,0 0.05914,0 0.118279,0 0.177419,0"
       id="path8528" />
    <text
       xml:space="preserve"
       style="font-style:normal;font-weight:normal;font-size:7.05556px;line-height:1.25;font-family:sans-serif;fill:#000000;fill-opacity:1;stroke:none;stroke-width:0.264583"
       x="95.579849"
       y="56.774193"
       id="text8532"><tspan
         sodipodi:role="line"
         id="tspan8530"
         style="font-style:normal;font-variant:normal;font-weight:normal;font-stretch:normal;font-size:7.05556px;font-family:'Ink Free';-inkscape-font-specification:'Ink Free';text-align:center;text-anchor:middle;fill:#1773cf;fill-opacity:1;stroke-width:0.264583"
         x="95.579849"
         y="56.774193">quality aspects</tspan><tspan
         sodipodi:role="line"
         style="font-style:normal;font-variant:normal;font-weight:normal;font-stretch:normal;font-size:7.05556px;font-family:'Ink Free';-inkscape-font-specification:'Ink Free';text-align:center;text-anchor:middle;fill:#1773cf;fill-opacity:1;stroke-width:0.264583"
         x="95.579849"
         y="65.718208"
         id="tspan8534">click on one of them!</tspan></text>
    <path
       style="fill:none;stroke:#1773cf;stroke-width:0.264583px;stroke-linecap:butt;stroke-linejoin:miter;stroke-opacity:1"
       d="m 78.064515,47.370968 c 0,1.005377 0,2.010751 0,3.016128"
       id="path9262" />
    <path
       style="fill:none;stroke:#1773cf;stroke-width:0.264583px;stroke-linecap:butt;stroke-linejoin:miter;stroke-opacity:1"
       d="m 71.09879,52.83802 c -0.04602,-0.870153 -0.655979,-1.504926 -1.003636,-2.258179 -0.110831,-0.240139 -0.141465,-0.511952 -0.250907,-0.752727 -0.100902,-0.221984 -0.290745,-0.398958 -0.376365,-0.627272 -0.04405,-0.117467 0.04405,-0.258897 0,-0.376363 -0.08562,-0.228315 -0.255383,-0.415561 -0.376361,-0.627272 -0.0464,-0.08119 -0.102778,-0.160193 -0.125455,-0.250909 -0.02029,-0.08114 0.02646,-0.171565 0,-0.250909 -0.01871,-0.05611 -0.08997,-0.07814 -0.125455,-0.125455 -0.09047,-0.120622 -0.176101,-0.245452 -0.25091,-0.376363 -0.09279,-0.162376 -0.154688,-0.341452 -0.250907,-0.501818 -0.03043,-0.05071 -0.09901,-0.07256 -0.125455,-0.125454 -0.05914,-0.11828 -0.0521,-0.266333 -0.125454,-0.376363 -0.0232,-0.03479 -0.09588,0.02957 -0.125455,0 -0.06612,-0.06612 -0.08748,-0.165461 -0.125455,-0.250909 -0.129347,-0.291029 -0.233937,-0.593326 -0.376362,-0.878181 -0.0529,-0.105793 -0.227714,-0.134927 -0.25091,-0.250909 -0.03281,-0.164025 0.04057,-0.33954 0,-0.501818 -0.01013,-0.04057 -0.09589,0.02957 -0.125454,0 -0.05914,-0.05914 0.02646,-0.171564 0,-0.250909 -0.112988,-0.338959 -0.263377,-0.664676 -0.376365,-1.003635 -0.159578,-0.47874 -0.125865,-0.879829 -0.250907,-1.379999 -0.02267,-0.09072 -0.09588,-0.162199 -0.125455,-0.250909 -0.01323,-0.03967 0.02957,-0.09588 0,-0.125454 -0.02957,-0.02957 -0.08805,0.0187 -0.125455,0 -0.134858,-0.06743 -0.241503,-0.183479 -0.376361,-0.250909 -0.118282,-0.05914 -0.248074,-0.09338 -0.376365,-0.125454 -0.04057,-0.01014 -0.09588,0.02957 -0.125455,0 -0.123759,-0.123758 0.257067,-0.250909 -0.125455,-0.250909 -0.306265,0.727847 -0.250907,1.064409 -0.250907,1.756362 0,0.167272 -0.03281,0.337793 0,0.501817 0.0116,0.05799 0.09901,0.07256 0.125454,0.125455 0.0187,0.0374 0,0.08364 0,0.125454 0,0.08364 -0.0164,0.168897 0,0.250909 0.151903,0.759513 0.125455,0.05198 0.125455,0.627272 0,0.04182 0,-0.08364 0,-0.125454 0,-0.167273 0,-0.334545 0,-0.501818"
       id="path4545" />
    <path
       style="fill:none;stroke:#1773cf;stroke-width:0.264583px;stroke-linecap:butt;stroke-linejoin:miter;stroke-opacity:1"
       d="m 65.076977,40.418032 c 0.543636,0 1.087273,0 1.630907,0 0.0565,0 0.338185,-0.01909 0.376365,0 0.0529,0.02645 0.07256,0.09901 0.125454,0.125454 0.0374,0.0187 0.08364,0 0.125455,0 0.04182,0 0.08363,0 0.125455,0 0.20909,0 0.418179,0 0.627272,0"
       id="path5285" />
  </g>
</svg>
