<?xml version="1.0" encoding="UTF-8" standalone="no"?>
<!-- Created with Inkscape (http://www.inkscape.org/) -->

<svg
   width="55.36166mm"
   height="6.7451153mm"
   viewBox="0 0 55.36166 6.7451153"
   version="1.1"
   id="svg5"
   inkscape:version="1.2.1 (9c6d41e410, 2022-07-14)"
   sodipodi:docname="productfactor.svg"
   xmlns:inkscape="http://www.inkscape.org/namespaces/inkscape"
   xmlns:sodipodi="http://sodipodi.sourceforge.net/DTD/sodipodi-0.dtd"
   xmlns="http://www.w3.org/2000/svg"
   xmlns:svg="http://www.w3.org/2000/svg">
  <sodipodi:namedview
     id="namedview7"
     pagecolor="#ffffff"
     bordercolor="#666666"
     borderopacity="1.0"
     inkscape:showpageshadow="2"
     inkscape:pageopacity="0.0"
     inkscape:pagecheckerboard="0"
     inkscape:deskcolor="#d1d1d1"
     inkscape:document-units="mm"
     showgrid="false"
     inkscape:zoom="2.9825758"
     inkscape:cx="42.915926"
     inkscape:cy="21.457963"
     inkscape:window-width="1920"
     inkscape:window-height="1017"
     inkscape:window-x="-8"
     inkscape:window-y="-8"
     inkscape:window-maximized="1"
     inkscape:current-layer="layer1" />
  <defs
     id="defs2" />
  <g
     inkscape:label="Ebene 1"
     inkscape:groupmode="layer"
     id="layer1"
     transform="translate(-48.17622,-32.449266)">
    <text
       xml:space="preserve"
       style="font-style:normal;font-weight:normal;font-size:7.05556px;line-height:1.25;font-family:sans-serif;fill:#1773cf;fill-opacity:1;stroke:none;stroke-width:0.264583;stroke-opacity:1"
       x="60.322578"
       y="37.790325"
       id="text235"><tspan
         sodipodi:role="line"
         id="tspan233"
         style="font-style:normal;font-variant:normal;font-weight:normal;font-stretch:normal;font-size:7.05556px;font-family:'Ink Free';-inkscape-font-specification:'Ink Free';stroke-width:0.264583;stroke:none;stroke-opacity:1;fill:#1773cf;fill-opacity:1"
         x="60.322578"
         y="37.790325">product factor</tspan></text>
    <path
       style="fill:none;stroke:#1773cf;stroke-width:0.264583px;stroke-linecap:butt;stroke-linejoin:miter;stroke-opacity:1;fill-opacity:1;fill-rule:nonzero"
       d="m 48.435484,37.524192 c 0.437936,-0.05088 0.68117,-0.163166 1.064514,-0.354838 0.05914,-0.02957 0.120724,-0.05469 0.177422,-0.08871 0.09142,-0.05485 0.174704,-0.122566 0.266128,-0.177419 0.113396,-0.06804 0.244809,-0.104066 0.354838,-0.177419 0.0348,-0.0232 0.05526,-0.06362 0.08871,-0.08871 0.08529,-0.06397 0.180837,-0.113451 0.266128,-0.177419 0.03346,-0.02508 0.05392,-0.06551 0.08871,-0.08871 0.01654,-0.01101 0.349155,-0.171736 0.354841,-0.177422 0.04675,-0.04675 0.04196,-0.130664 0.08871,-0.177419 0.04675,-0.04676 0.118279,-0.05914 0.177419,-0.08871 0.05914,-0.02957 0.118279,-0.05914 0.177419,-0.08871 0.400082,-0.200041 -0.09622,0.03207 0.532257,-0.177419 0.151069,-0.05036 0.298035,-0.112747 0.44355,-0.177419 0.120843,-0.05371 0.233289,-0.125328 0.354838,-0.177419 0.171895,-0.07367 0.364985,-0.09378 0.532257,-0.177419 0.09536,-0.04768 0.168135,-0.135422 0.266131,-0.177422 0.112062,-0.04802 0.236559,-0.05914 0.354838,-0.08871 0.11828,-0.02957 0.233418,-0.07767 0.354838,-0.08871 0.323932,-0.02945 0.650539,0 0.975807,0 0.295699,0 0.592418,-0.02455 0.887098,0 0.06589,0.0055 0.112583,0.07574 0.177419,0.08871 0.05945,0.01188 0.580798,-0.02008 0.620967,0 0.0374,0.01871 0.05391,0.06551 0.08871,0.08871 0.448143,0.298765 0.0021,7.94e-4 0.266129,0.08871 0.06273,0.0209 0.114694,0.0678 0.177421,0.08871 0.0579,0.01929 0.426194,0 0.532257,0 0.02957,0 0.0678,-0.0209 0.08871,0 0.0209,0.0209 -0.0209,0.0678 0,0.08871 0.04182,0.04182 0.121314,-0.01871 0.177419,0 0.06273,0.0209 0.114691,0.0678 0.177419,0.08871 0.02805,0.0093 0.0678,-0.0209 0.08871,0 0.04182,0.04182 -0.04182,0.135602 0,0.177419 0.0209,0.0209 0.06066,-0.0093 0.08871,0 0.05914,0.02957 0.118282,0.05914 0.177421,0.08871 0,0.02957 -0.0209,0.0678 0,0.08871 0.0209,0.0209 0.05914,0 0.08871,0 0.177419,0 0.354838,0 0.532257,0"
       id="path397" />
    <path
       style="fill:none;stroke:#1773cf;stroke-width:0.264583px;stroke-linecap:butt;stroke-linejoin:miter;stroke-opacity:1"
       d="m 49.854839,34.241935 c -0.322763,1.129668 -0.202179,0.996442 -0.620969,1.774193 -0.113025,0.209905 -0.240681,0.411678 -0.354838,0.620969 -0.06332,0.116094 -0.11828,0.236559 -0.177419,0.354838 -0.02957,0.05914 -0.05203,0.122404 -0.08871,0.177419 -0.0232,0.0348 -0.07001,0.05131 -0.08871,0.08871 -0.01323,0.02646 0.0209,0.0678 0,0.08871 -0.0209,0.0209 -0.05914,0 -0.08871,0 -0.02957,0.05914 -0.05914,0.118279 -0.08871,0.177419 0.49862,0.332413 0.569685,0.426454 1.153227,0.620968 0.231327,0.07711 0.472082,0.12259 0.709677,0.17742 0.187985,0.04338 0.515868,0.08051 0.709678,0.177419 0.135866,0.06793 0.06937,0.158082 0.177419,0.266129 0.04675,0.04675 0.122404,0.05203 0.17742,0.08871 0.03479,0.0232 0.04904,0.07549 0.08871,0.08871 4.02e-4,1.34e-4 0.266045,-8.4e-5 0.266129,0 0.02091,0.02091 0,0.05914 0,0.08871 0,0.02957 0,0.05914 0,0.08871"
       id="path399" />
  </g>
</svg>
